<?xml version="1.0" encoding="UTF-8" standalone="no"?>
<!DOCTYPE svg PUBLIC "-//W3C//DTD SVG 1.1//EN" "http://www.w3.org/Graphics/SVG/1.1/DTD/svg11.dtd">
<svg version="1.1" xmlns="http://www.w3.org/2000/svg" xmlns:xlink="http://www.w3.org/1999/xlink" preserveAspectRatio="xMidYMid meet" viewBox="0 0 18 20" width="18" height="20"><defs><path d="M7.25 3.28C7.88 3.91 12.89 8.98 13.52 9.61C13.73 9.82 13.73 10.17 13.52 10.39C12.89 11.02 7.88 16.08 7.26 16.72C7.04 16.93 6.69 16.93 6.48 16.72C6.27 16.5 6.27 16.15 6.48 15.93C6.86 15.54 8.76 13.56 12.19 10C11.62 9.41 7.05 4.66 6.48 4.07C6.34 3.69 6.34 3.43 6.48 3.28C6.69 3.06 7.04 3.06 7.25 3.28Z" id="d6N9bwfZ7T"></path><path d="M14.75 3.28C14.12 3.91 9.11 8.98 8.48 9.61C8.27 9.82 8.27 10.17 8.48 10.39C9.11 11.02 14.12 16.08 14.74 16.72C14.96 16.93 15.31 16.93 15.52 16.72C15.73 16.5 15.73 16.15 15.52 15.93C15.14 15.54 13.24 13.56 9.81 10C10.38 9.41 14.95 4.66 15.52 4.07C15.66 3.69 15.66 3.43 15.52 3.28C15.31 3.06 14.96 3.06 14.75 3.28Z" id="bc7O2dCC2"></path></defs><g><g><g><use xlink:href="#d6N9bwfZ7T" opacity="1" fill="#ffffff" fill-opacity="1"></use><g><use xlink:href="#d6N9bwfZ7T" opacity="1" fill-opacity="0" stroke="#000000" stroke-width="1" stroke-opacity="0"></use></g></g><g><use xlink:href="#bc7O2dCC2" opacity="1" fill="#000000" fill-opacity="0"></use><g><use xlink:href="#bc7O2dCC2" opacity="1" fill-opacity="0" stroke="#000000" stroke-width="1" stroke-opacity="0"></use></g></g></g></g></svg>